<svg xmlns="http://www.w3.org/2000/svg" width="980" height="520" viewBox="0 0 980 520" role="img" aria-label="Neural network stability improvement">
<rect width="100%" height="100%" fill="#ffffff"/>
<text x="490.0" y="32" text-anchor="middle" font-family="Arial, sans-serif" font-size="22" font-weight="700" fill="#172033">Neural Network Stability Improvement</text>
<text x="490.0" y="54" text-anchor="middle" font-family="Arial, sans-serif" font-size="12" fill="#667085">Old outlier bars are capped at $15M for readability; labels show true MAE.</text>
<line x1="80" y1="420.0" x2="950" y2="420.0" stroke="#e7ebf0"/>
<text x="70" y="424.0" text-anchor="end" font-family="Arial, sans-serif" font-size="12" fill="#667085">0</text>
<line x1="80" y1="350.0" x2="950" y2="350.0" stroke="#e7ebf0"/>
<text x="70" y="354.0" text-anchor="end" font-family="Arial, sans-serif" font-size="12" fill="#667085">3</text>
<line x1="80" y1="280.0" x2="950" y2="280.0" stroke="#e7ebf0"/>
<text x="70" y="284.0" text-anchor="end" font-family="Arial, sans-serif" font-size="12" fill="#667085">6</text>
<line x1="80" y1="210.0" x2="950" y2="210.0" stroke="#e7ebf0"/>
<text x="70" y="214.0" text-anchor="end" font-family="Arial, sans-serif" font-size="12" fill="#667085">9</text>
<line x1="80" y1="140.0" x2="950" y2="140.0" stroke="#e7ebf0"/>
<text x="70" y="144.0" text-anchor="end" font-family="Arial, sans-serif" font-size="12" fill="#667085">12</text>
<line x1="80" y1="70.0" x2="950" y2="70.0" stroke="#e7ebf0"/>
<text x="70" y="74.0" text-anchor="end" font-family="Arial, sans-serif" font-size="12" fill="#667085">15</text>
<rect x="116.5" y="310.9" width="32" height="109.1" rx="3" fill="#d62728"/>
<text x="132.5" y="305.9" text-anchor="middle" font-family="Arial, sans-serif" font-size="10" fill="#344054">4.67</text>
<rect x="156.5" y="324.1" width="32" height="95.9" rx="3" fill="#ff7f0e"/>
<text x="172.5" y="319.1" text-anchor="middle" font-family="Arial, sans-serif" font-size="10" fill="#344054">4.11</text>
<text x="152.5" y="472" text-anchor="middle" font-family="Arial, sans-serif" font-size="13" fill="#344054">Global</text>
<rect x="261.5" y="282.2" width="32" height="137.8" rx="3" fill="#d62728"/>
<text x="277.5" y="277.2" text-anchor="middle" font-family="Arial, sans-serif" font-size="10" fill="#344054">5.91</text>
<rect x="301.5" y="280.0" width="32" height="140.0" rx="3" fill="#ff7f0e"/>
<text x="317.5" y="275.0" text-anchor="middle" font-family="Arial, sans-serif" font-size="10" fill="#344054">6.00</text>
<text x="297.5" y="472" text-anchor="middle" font-family="Arial, sans-serif" font-size="13" fill="#344054">PG</text>
<rect x="406.5" y="139.1" width="32" height="280.9" rx="3" fill="#d62728"/>
<text x="422.5" y="134.1" text-anchor="middle" font-family="Arial, sans-serif" font-size="10" fill="#344054">12.0</text>
<rect x="446.5" y="306.6" width="32" height="113.4" rx="3" fill="#ff7f0e"/>
<text x="462.5" y="301.6" text-anchor="middle" font-family="Arial, sans-serif" font-size="10" fill="#344054">4.86</text>
<text x="442.5" y="472" text-anchor="middle" font-family="Arial, sans-serif" font-size="13" fill="#344054">SG</text>
<rect x="551.5" y="70.0" width="32" height="350.0" rx="3" fill="#d62728"/>
<text x="567.5" y="80.0" text-anchor="middle" font-family="Arial, sans-serif" font-size="10" fill="#344054">251.1</text>
<rect x="591.5" y="327.2" width="32" height="92.8" rx="3" fill="#ff7f0e"/>
<text x="607.5" y="322.2" text-anchor="middle" font-family="Arial, sans-serif" font-size="10" fill="#344054">3.98</text>
<text x="587.5" y="472" text-anchor="middle" font-family="Arial, sans-serif" font-size="13" fill="#344054">SF</text>
<rect x="696.5" y="250.9" width="32" height="169.1" rx="3" fill="#d62728"/>
<text x="712.5" y="245.9" text-anchor="middle" font-family="Arial, sans-serif" font-size="10" fill="#344054">7.25</text>
<rect x="736.5" y="312.0" width="32" height="108.0" rx="3" fill="#ff7f0e"/>
<text x="752.5" y="307.0" text-anchor="middle" font-family="Arial, sans-serif" font-size="10" fill="#344054">4.63</text>
<text x="732.5" y="472" text-anchor="middle" font-family="Arial, sans-serif" font-size="13" fill="#344054">PF</text>
<rect x="841.5" y="334.4" width="32" height="85.6" rx="3" fill="#d62728"/>
<text x="857.5" y="329.4" text-anchor="middle" font-family="Arial, sans-serif" font-size="10" fill="#344054">3.67</text>
<rect x="881.5" y="324.1" width="32" height="95.9" rx="3" fill="#ff7f0e"/>
<text x="897.5" y="319.1" text-anchor="middle" font-family="Arial, sans-serif" font-size="10" fill="#344054">4.11</text>
<text x="877.5" y="472" text-anchor="middle" font-family="Arial, sans-serif" font-size="13" fill="#344054">C</text>
<rect x="80" y="487" width="12" height="12" rx="2" fill="#d62728"/>
<text x="98" y="498" font-family="Arial, sans-serif" font-size="13" fill="#344054">Original NN</text>
<rect x="245" y="487" width="12" height="12" rx="2" fill="#ff7f0e"/>
<text x="263" y="498" font-family="Arial, sans-serif" font-size="13" fill="#344054">Class-style NN</text>
</svg>